<?xml version="1.0" standalone="no"?>
<!DOCTYPE svg PUBLIC "-//W3C//DTD SVG 20010904//EN"
 "http://www.w3.org/TR/2001/REC-SVG-20010904/DTD/svg10.dtd">
<svg version="1.0" xmlns="http://www.w3.org/2000/svg"
 width="175.000000pt" height="143.000000pt" viewBox="0 0 175.000000 143.000000"
 preserveAspectRatio="xMidYMid meet">

<g transform="translate(0.000000,143.000000) scale(0.100000,-0.100000)"
fill="#000000" stroke="none">
<path d="M230 1240 c0 -5 11 -10 24 -10 13 0 75 -13 138 -29 120 -30 248 -84
306 -127 86 -66 95 -155 22 -212 -67 -52 -225 -114 -391 -153 -49 -11 -89 -23
-89 -26 0 -11 433 6 580 22 554 61 832 179 729 309 -59 75 -302 150 -619 190
-243 32 -700 55 -700 36z m676 -135 c86 -42 114 -72 114 -127 0 -75 -47 -125
-166 -179 -68 -30 -97 -31 -53 -2 43 29 111 105 126 140 20 49 4 90 -57 147
-74 69 -69 71 36 21z m320 -56 c63 -41 84 -65 84 -100 0 -34 -27 -62 -92 -95
-67 -34 -87 -32 -56 5 53 63 60 131 18 184 -37 47 -23 49 46 6z"/>
<path d="M536 450 c-64 -20 -112 -97 -99 -160 8 -44 59 -98 101 -110 75 -20
155 29 172 104 l8 36 -64 0 c-36 0 -64 -4 -64 -10 0 -5 25 -10 55 -10 47 0 55
-3 55 -19 0 -40 -70 -91 -126 -91 l-24 0 0 125 0 125 33 0 c17 0 47 -9 65 -20
39 -24 42 -19 5 8 -35 25 -80 33 -117 22z"/>
<path d="M1473 446 c-17 -8 -39 -26 -48 -40 -15 -23 -15 -27 0 -59 8 -18 36
-53 60 -77 57 -56 59 -80 8 -81 l-38 -1 30 -10 c40 -13 102 8 128 44 l20 26
-26 44 c-14 24 -41 59 -61 77 -20 19 -36 44 -36 54 0 17 5 19 47 14 52 -6 39
8 -17 17 -21 4 -48 0 -67 -8z"/>
<path d="M140 316 l0 -136 68 0 c92 0 137 14 165 53 49 65 41 138 -19 183 -29
23 -47 27 -124 32 l-90 5 0 -137z m216 80 c29 -29 34 -41 34 -81 0 -40 -5 -52
-34 -81 -24 -24 -43 -34 -65 -34 l-31 0 0 115 0 115 31 0 c22 0 41 -10 65 -34z"/>
<path d="M1130 440 c0 -5 16 -10 35 -10 l35 0 0 -125 0 -125 60 0 60 0 0 125
0 125 35 0 c19 0 35 5 35 10 0 6 -50 10 -130 10 -80 0 -130 -4 -130 -10z"/>
<path d="M777 319 c-21 -67 -36 -123 -34 -125 2 -2 11 21 21 51 9 30 20 55 23
55 3 0 23 -20 45 -45 l40 -46 34 52 33 52 -56 63 c-30 35 -58 64 -62 64 -4 0
-24 -55 -44 -121z"/>
<path d="M997 388 c-20 -31 -37 -63 -37 -71 0 -7 9 -41 21 -75 l21 -62 55 0
c64 0 63 -12 9 160 l-33 105 -36 -57z"/>
<path d="M1420 206 c0 -2 7 -7 16 -10 8 -3 12 -2 9 4 -6 10 -25 14 -25 6z"/>
</g>
</svg>
